<svg xmlns="http://www.w3.org/2000/svg" xmlns:xlink="http://www.w3.org/1999/xlink" width="500" zoomAndPan="magnify" viewBox="0 0 375 142.499996" height="190" preserveAspectRatio="xMidYMid meet" version="1.0"><defs><g/><clipPath id="191e694e03"><path d="M 0.65625 0 L 374.34375 0 L 374.34375 142 L 0.65625 142 Z M 0.65625 0 " clip-rule="nonzero"/></clipPath><clipPath id="bf7fe2ddf5"><path d="M 179.902344 55.542969 L 307.207031 55.542969 L 307.207031 102.273438 L 179.902344 102.273438 Z M 179.902344 55.542969 " clip-rule="nonzero"/></clipPath><clipPath id="2dddff03aa"><path d="M 300 14.125 L 368.988281 14.125 L 368.988281 76 L 300 76 Z M 300 14.125 " clip-rule="nonzero"/></clipPath></defs><g clip-path="url(#191e694e03)"><path fill="#8400ff" d="M 17.847656 0 L 357.152344 0 C 366.648438 0 374.34375 7.703125 374.34375 17.210938 L 374.34375 124.792969 C 374.34375 134.296875 366.648438 142 357.152344 142 L 17.847656 142 C 8.351562 142 0.65625 134.296875 0.65625 124.792969 L 0.65625 17.210938 C 0.65625 7.703125 8.351562 0 17.847656 0 " fill-opacity="1" fill-rule="nonzero"/></g><g fill="#ffffff" fill-opacity="1"><g transform="translate(43.291346, 107.161437)"><g><path d="M 49.589844 -10.953125 L 18.289062 -10.953125 L 18.289062 -59.859375 L 6.554688 -59.859375 L 6.554688 0 L 49.589844 0 Z M 49.589844 -10.953125 "/></g></g></g><g fill="#ffffff" fill-opacity="1"><g transform="translate(95.223699, 107.161437)"><g><path d="M 41.175781 -24.453125 C 41.175781 -14.867188 36.1875 -10.464844 28.167969 -10.464844 C 18.484375 -10.464844 14.769531 -16.726562 14.769531 -24.453125 C 14.769531 -32.179688 18.582031 -38.4375 28.167969 -38.4375 C 36.972656 -38.4375 40.785156 -33.058594 41.175781 -24.453125 Z M 56.824219 0 C 52.523438 -9.585938 53.109375 -19.464844 52.914062 -24.453125 C 52.328125 -39.710938 43.035156 -49.394531 28.167969 -49.394531 C 12.226562 -49.394531 3.03125 -38.242188 3.03125 -24.550781 C 3.03125 -10.5625 12.910156 0.488281 26.800781 0.488281 C 34.132812 0.488281 39.320312 -2.640625 42.644531 -7.53125 C 43.230469 -5.085938 44.011719 -2.542969 45.089844 0 Z M 56.824219 0 "/></g></g></g><g fill="#ffffff" fill-opacity="1"><g transform="translate(154.002127, 107.161437)"><g><path d="M 17.605469 -24.453125 C 17.605469 -32.082031 21.027344 -38.046875 31.691406 -38.046875 C 32.960938 -38.046875 34.132812 -37.753906 35.40625 -37.558594 L 35.40625 -48.902344 C 33.9375 -49.097656 32.570312 -49.394531 31.101562 -49.394531 C 14.964844 -49.394531 5.867188 -38.242188 5.867188 -24.355469 L 5.867188 0 L 17.605469 0 Z M 17.605469 -24.453125 "/></g></g></g><g fill="#ffffff" fill-opacity="1"><g transform="translate(191.362125, 107.161437)"><g><path d="M 27.972656 -10.464844 C 18.679688 -10.464844 14.769531 -16.726562 14.769531 -24.453125 C 14.769531 -32.179688 18.679688 -38.4375 27.972656 -38.4375 C 37.265625 -38.4375 41.175781 -32.179688 41.175781 -24.453125 C 41.175781 -16.726562 37.265625 -10.464844 27.972656 -10.464844 Z M 27.972656 0.488281 C 43.71875 0.488281 52.914062 -10.660156 52.914062 -24.453125 C 52.914062 -38.242188 43.71875 -49.394531 27.972656 -49.394531 C 12.226562 -49.394531 3.03125 -38.242188 3.03125 -24.453125 C 3.03125 -10.660156 12.226562 0.488281 27.972656 0.488281 Z M 27.972656 0.488281 "/></g></g></g><g fill="#ffe500" fill-opacity="1"><g transform="translate(247.299795, 107.161437)"><g><path d="M 15.84375 -30.710938 C 17.605469 -35.210938 21.519531 -38.046875 28.363281 -38.046875 C 33.546875 -38.046875 36.875 -36.382812 36.875 -33.253906 C 36.875 -30.125 33.546875 -28.460938 28.070312 -28.460938 C 24.160156 -28.460938 19.367188 -29.34375 15.84375 -30.710938 Z M 45.285156 -12.617188 C 41.566406 -11.445312 34.234375 -10.757812 30.027344 -10.757812 C 20.34375 -10.757812 16.332031 -14.476562 15.160156 -20.050781 C 18.976562 -18.191406 23.667969 -17.117188 27.972656 -17.117188 C 40.199219 -17.117188 48.707031 -23.667969 48.707031 -33.253906 C 48.707031 -42.839844 40.101562 -49.394531 27.972656 -49.394531 C 12.128906 -49.394531 3.03125 -38.242188 3.03125 -24.257812 C 3.03125 -10.660156 11.738281 0.585938 29.246094 0.585938 C 33.839844 0.585938 40.492188 -0.195312 45.285156 -1.566406 Z M 45.285156 -12.617188 "/></g></g></g><g fill="#ffe500" fill-opacity="1"><g transform="translate(299.329947, 107.161437)"><g><path d="M 5.867188 -68.464844 L 5.867188 0 L 17.605469 0 L 17.605469 -68.464844 Z M 5.867188 -68.464844 "/></g></g></g><path fill="#000000" d="M 308.269531 67.117188 L 308.265625 67.097656 L 308.265625 67.101562 Z M 308.269531 67.117188 " fill-opacity="1" fill-rule="nonzero"/><path fill="#000000" d="M 257.4375 78.925781 L 257.441406 78.925781 C 257.433594 78.910156 257.425781 78.894531 257.421875 78.878906 L 257.417969 78.878906 C 257.421875 78.894531 257.429688 78.910156 257.4375 78.925781 " fill-opacity="1" fill-rule="nonzero"/><path fill="#000000" d="M 229.691406 87.644531 C 229.691406 87.648438 229.695312 87.652344 229.695312 87.652344 L 229.695312 87.644531 L 229.691406 87.644531 " fill-opacity="1" fill-rule="nonzero"/><g clip-path="url(#bf7fe2ddf5)"><path fill="#000000" d="M 180.707031 94.019531 C 181.164062 95.132812 181.828125 96.167969 182.628906 97.050781 C 183.433594 97.933594 184.363281 98.65625 185.328125 99.242188 C 187.273438 100.414062 189.332031 101.078125 191.359375 101.515625 C 193.394531 101.945312 195.417969 102.144531 197.417969 102.234375 C 199.417969 102.320312 201.402344 102.265625 203.367188 102.144531 C 207.296875 101.898438 211.160156 101.34375 214.964844 100.601562 C 216.867188 100.226562 218.757812 99.8125 220.628906 99.347656 C 222.507812 98.890625 224.371094 98.386719 226.21875 97.851562 C 229.109375 97.019531 231.964844 96.101562 234.796875 95.117188 C 236.628906 94.484375 238.453125 93.820312 240.269531 93.140625 C 242.828125 92.175781 245.371094 91.171875 247.898438 90.148438 C 252.125 88.417969 256.316406 86.621094 260.484375 84.789062 C 262.175781 84.042969 263.863281 83.292969 265.550781 82.539062 C 266.671875 82.039062 267.789062 81.535156 268.90625 81.03125 C 275.855469 77.894531 282.765625 74.679688 289.636719 71.378906 C 294.222656 69.167969 298.839844 66.925781 303.398438 64.648438 C 304.234375 64.234375 305.601562 63.539062 306.511719 63.082031 C 307.121094 62.773438 307.234375 61.929688 306.707031 61.5 C 306.675781 61.476562 306.648438 61.453125 306.617188 61.433594 C 305.808594 60.941406 304.792969 60.929688 303.96875 61.398438 C 303.488281 61.675781 302.972656 61.96875 302.609375 62.179688 C 298.066406 64.804688 293.46875 67.328125 288.804688 69.726562 C 282.058594 73.207031 275.191406 76.457031 268.195312 79.402344 C 267.703125 79.613281 267.214844 79.8125 266.722656 80.015625 C 266.472656 80.121094 266.222656 80.226562 265.972656 80.324219 C 265.863281 80.371094 265.75 80.414062 265.636719 80.460938 C 265.46875 80.53125 265.300781 80.601562 265.128906 80.667969 C 264.964844 80.738281 264.796875 80.804688 264.632812 80.871094 C 264.507812 80.925781 264.378906 80.972656 264.253906 81.023438 C 263.953125 81.144531 263.652344 81.265625 263.355469 81.382812 C 263.351562 81.382812 263.347656 81.386719 263.34375 81.386719 C 262.910156 81.558594 262.480469 81.726562 262.046875 81.898438 C 261.617188 82.066406 261.175781 82.199219 260.742188 82.363281 C 260.3125 82.53125 259.878906 82.691406 259.433594 82.824219 L 259.421875 82.828125 C 255.300781 84.535156 251.066406 85.886719 246.835938 87.242188 C 243.859375 88.199219 240.855469 89.0625 237.867188 89.964844 L 237.859375 89.96875 C 235.988281 90.535156 234.121094 91.101562 232.210938 91.523438 C 232.207031 91.523438 232.207031 91.523438 232.207031 91.523438 L 232.183594 91.53125 C 229.824219 92.246094 227.421875 92.800781 225.03125 93.375 C 224.113281 93.59375 223.203125 93.824219 222.289062 94.03125 C 221.375 94.238281 220.460938 94.449219 219.542969 94.644531 C 217.710938 95.03125 215.878906 95.414062 214.042969 95.746094 C 210.371094 96.410156 206.691406 96.964844 203.027344 97.246094 C 201.195312 97.386719 199.375 97.445312 197.570312 97.414062 C 195.769531 97.378906 193.988281 97.238281 192.289062 96.917969 C 190.597656 96.601562 188.972656 96.117188 187.625 95.355469 C 186.28125 94.597656 185.253906 93.597656 184.667969 92.328125 C 184.074219 91.066406 183.933594 89.507812 184.128906 87.878906 C 184.320312 86.242188 184.84375 84.558594 185.507812 82.910156 C 186.175781 81.253906 187.011719 79.628906 187.933594 78.039062 C 188.851562 76.441406 189.867188 74.886719 190.929688 73.355469 C 193.0625 70.289062 195.414062 67.347656 197.859375 64.464844 C 200.304688 61.589844 202.859375 58.78125 205.457031 56 L 205.078125 55.597656 C 202.101562 57.980469 199.214844 60.492188 196.445312 63.140625 C 193.675781 65.789062 191.023438 68.582031 188.5625 71.574219 C 186.121094 74.578125 183.839844 77.769531 182.089844 81.398438 C 181.222656 83.21875 180.5 85.160156 180.128906 87.285156 C 179.941406 88.34375 179.855469 89.457031 179.933594 90.597656 C 180.007812 91.734375 180.257812 92.90625 180.707031 94.019531 " fill-opacity="1" fill-rule="nonzero"/></g><path fill="#000000" d="M 355.097656 77.476562 C 355.101562 77.484375 355.101562 77.488281 355.101562 77.492188 C 355.105469 77.496094 355.105469 77.503906 355.109375 77.511719 L 355.160156 77.472656 C 355.140625 77.472656 355.117188 77.476562 355.097656 77.476562 " fill-opacity="1" fill-rule="nonzero"/><g clip-path="url(#2dddff03aa)"><path fill="#000000" d="M 300.8125 52.640625 L 305.339844 55.433594 L 306.5625 56.191406 C 306.5625 56.191406 309.542969 58.03125 309.566406 58.046875 C 310.253906 58.472656 310.878906 59.011719 311.261719 59.730469 C 311.597656 60.363281 311.699219 61.074219 311.839844 61.769531 C 312.054688 62.839844 312.269531 63.914062 312.484375 64.984375 L 312.488281 64.996094 L 313.703125 71.042969 C 313.871094 71.855469 314.511719 72.160156 315.144531 71.71875 C 315.773438 71.277344 316.3125 70.238281 316.332031 69.410156 L 316.480469 62.914062 L 316.480469 62.910156 L 316.570312 58.546875 L 322.898438 54.480469 L 323.359375 54.183594 L 323.367188 54.179688 L 341.382812 42.601562 L 341.542969 43.363281 L 341.542969 43.367188 L 341.546875 43.378906 L 341.613281 43.367188 L 342.753906 47.867188 L 342.761719 47.894531 L 348.769531 75.03125 C 348.898438 75.597656 349.195312 75.976562 349.621094 75.847656 L 349.644531 75.839844 C 349.804688 75.792969 349.984375 75.714844 350.164062 75.589844 L 353.003906 73.605469 C 353.664062 73.148438 354.191406 72.128906 354.167969 71.324219 L 353.925781 63.726562 C 354.128906 63.691406 354.269531 63.53125 354.449219 63.40625 L 355.695312 62.539062 L 356.03125 62.304688 C 356.695312 61.84375 356.996094 61.070312 356.535156 60.410156 L 356.199219 59.929688 C 356.050781 59.71875 355.839844 59.542969 355.601562 59.417969 C 355.097656 59.152344 354.464844 59.109375 354.019531 59.417969 L 353.730469 59.617188 L 353.574219 53 C 353.773438 52.964844 354.035156 52.976562 354.214844 52.855469 L 354.867188 52.398438 L 355.753906 51.78125 C 356.410156 51.324219 356.582031 50.382812 356.121094 49.722656 L 355.789062 49.242188 C 355.484375 48.8125 354.925781 48.515625 354.390625 48.488281 C 354.101562 48.472656 353.820312 48.535156 353.59375 48.695312 L 353.355469 48.859375 L 353.140625 41.390625 L 353.132812 41.054688 L 352.980469 35.816406 L 352.960938 35.078125 L 362.0625 29.378906 L 362.136719 29.335938 C 364.21875 27.988281 367.566406 24.335938 368.574219 21.644531 C 368.917969 20.722656 368.988281 19.917969 368.644531 19.355469 C 368.320312 18.828125 367.65625 18.5625 366.796875 18.492188 C 364.0625 18.257812 359.335938 19.972656 357.203125 21.347656 C 357.164062 21.375 353.972656 23.761719 349.308594 27.265625 C 349.15625 27.382812 349.007812 27.496094 348.851562 27.613281 C 348.617188 27.789062 348.375 27.972656 348.128906 28.152344 L 347.675781 27.96875 L 347.371094 27.847656 L 343.1875 26.144531 L 335.210938 22.902344 L 335.453125 22.738281 C 336.113281 22.277344 336.3125 21.378906 335.851562 20.71875 L 335.515625 20.238281 C 335.054688 19.578125 334.242188 19.601562 333.582031 20.058594 L 332.042969 21.128906 C 331.863281 21.253906 331.640625 21.296875 331.535156 21.472656 L 325.226562 18.828125 L 325.511719 18.632812 C 326.171875 18.171875 326.402344 17.296875 325.941406 16.636719 L 325.605469 16.160156 C 325.148438 15.5 324.15625 15.289062 323.496094 15.746094 L 321.90625 16.851562 C 321.730469 16.972656 321.59375 17.136719 321.492188 17.3125 L 314.421875 14.449219 C 313.675781 14.144531 312.484375 14.21875 311.824219 14.679688 L 308.984375 16.65625 C 308.324219 17.113281 308.375 17.902344 309.050781 18.339844 L 331.527344 32.855469 L 336.054688 35.78125 L 337.113281 36.464844 C 336.769531 36.722656 336.425781 36.980469 336.082031 37.242188 C 326.636719 44.34375 316.871094 51.6875 313.492188 54.230469 L 309.554688 52.886719 L 305.097656 51.363281 L 303.257812 50.734375 C 302.472656 50.46875 301.316406 50.609375 300.683594 51.046875 C 300.050781 51.488281 300.109375 52.203125 300.8125 52.640625 " fill-opacity="1" fill-rule="nonzero"/></g><g fill="#ffffff" fill-opacity="1"><g transform="translate(239.79195, 132.022311)"><g><path d="M 5.898438 -16.390625 L 1.964844 -16.390625 L 1.964844 0 L 5.898438 0 Z M 3.933594 -18.257812 C 5.507812 -18.257812 6.425781 -19.371094 6.425781 -20.78125 C 6.425781 -22.125 5.507812 -23.273438 3.933594 -23.273438 C 2.359375 -23.273438 1.410156 -22.160156 1.410156 -20.78125 C 1.410156 -19.40625 2.359375 -18.257812 3.933594 -18.257812 Z M 3.933594 -18.257812 "/></g></g></g><g fill="#ffffff" fill-opacity="1"><g transform="translate(247.658712, 132.022311)"><g><path d="M 27.535156 -8.851562 C 27.535156 -13.113281 24.847656 -16.554688 20.160156 -16.554688 C 17.636719 -16.554688 15.800781 -15.242188 14.75 -13.242188 C 13.703125 -15.242188 11.867188 -16.554688 9.34375 -16.554688 C 4.65625 -16.554688 1.964844 -13.113281 1.964844 -8.851562 L 1.964844 0 L 5.898438 0 L 5.898438 -8.851562 C 5.898438 -11.210938 7.015625 -12.882812 9.34375 -12.882812 C 11.667969 -12.882812 12.785156 -11.210938 12.785156 -8.851562 L 12.785156 0 L 16.71875 0 L 16.71875 -8.851562 C 16.71875 -11.210938 17.832031 -12.882812 20.160156 -12.882812 C 22.488281 -12.882812 23.601562 -11.210938 23.601562 -8.851562 L 23.601562 0 L 27.535156 0 Z M 27.535156 -8.851562 "/></g></g></g><g fill="#ffffff" fill-opacity="1"><g transform="translate(276.89685, 132.022311)"><g><path d="M 5.898438 -8.195312 C 5.898438 -11.40625 7.570312 -12.882812 10.261719 -12.882812 C 13.503906 -12.882812 14.75 -10.785156 14.75 -8.195312 C 14.75 -5.605469 13.503906 -3.507812 10.261719 -3.507812 C 7.570312 -3.507812 5.898438 -4.984375 5.898438 -8.195312 Z M 5.898438 -1.867188 C 7.015625 -0.621094 8.589844 0.164062 10.71875 0.164062 C 15.375 0.164062 18.683594 -3.539062 18.683594 -8.226562 C 18.683594 -12.585938 15.832031 -16.554688 10.292969 -16.554688 C 4.917969 -16.554688 1.964844 -12.816406 1.964844 -8.195312 L 1.964844 6.554688 L 5.898438 6.554688 Z M 5.898438 -1.867188 "/></g></g></g><g fill="#ffffff" fill-opacity="1"><g transform="translate(296.563762, 132.022311)"><g><path d="M 9.375 -3.507812 C 6.261719 -3.507812 4.949219 -5.605469 4.949219 -8.195312 C 4.949219 -10.785156 6.261719 -12.882812 9.375 -12.882812 C 12.488281 -12.882812 13.800781 -10.785156 13.800781 -8.195312 C 13.800781 -5.605469 12.488281 -3.507812 9.375 -3.507812 Z M 9.375 0.164062 C 14.652344 0.164062 17.734375 -3.574219 17.734375 -8.195312 C 17.734375 -12.816406 14.652344 -16.554688 9.375 -16.554688 C 4.097656 -16.554688 1.015625 -12.816406 1.015625 -8.195312 C 1.015625 -3.574219 4.097656 0.164062 9.375 0.164062 Z M 9.375 0.164062 "/></g></g></g><g fill="#ffffff" fill-opacity="1"><g transform="translate(315.312881, 132.022311)"><g><path d="M 5.898438 -8.195312 C 5.898438 -10.75 7.046875 -12.75 10.621094 -12.75 C 11.046875 -12.75 11.441406 -12.652344 11.867188 -12.585938 L 11.867188 -16.390625 C 11.375 -16.457031 10.914062 -16.554688 10.421875 -16.554688 C 5.015625 -16.554688 1.964844 -12.816406 1.964844 -8.160156 L 1.964844 0 L 5.898438 0 Z M 5.898438 -8.195312 "/></g></g></g><g fill="#ffffff" fill-opacity="1"><g transform="translate(327.834146, 132.022311)"><g><path d="M 10.71875 -15.832031 L 5.636719 -15.832031 L 5.636719 -20.324219 L 1.703125 -20.324219 L 1.703125 -8.195312 C 1.703125 -3.539062 4.851562 0.164062 9.898438 0.164062 C 10.71875 0.164062 10.949219 0.0664062 11.503906 0 L 11.503906 -3.671875 C 11.078125 -3.605469 10.6875 -3.507812 10.03125 -3.507812 C 7.046875 -3.507812 5.636719 -5.441406 5.636719 -8.195312 L 5.636719 -12.160156 L 10.71875 -12.160156 Z M 10.71875 -15.832031 "/></g></g></g><g fill="#ffffff" fill-opacity="1"><g transform="translate(340.552081, 132.022311)"><g><path d="M 1.210938 -0.523438 C 3.046875 -0.0664062 5.769531 0.195312 7.507812 0.195312 C 11.769531 0.195312 15.109375 -1.375 15.109375 -5.082031 C 15.109375 -8.652344 12.03125 -9.277344 8.816406 -9.898438 C 6 -10.457031 5.113281 -10.6875 5.113281 -11.539062 C 5.113281 -12.324219 5.898438 -12.785156 8.195312 -12.785156 C 10.0625 -12.785156 13.011719 -12.488281 14.257812 -12.128906 L 14.257812 -15.832031 C 12.523438 -16.292969 9.933594 -16.554688 8.324219 -16.554688 C 4.292969 -16.554688 1.34375 -14.914062 1.34375 -11.40625 C 1.34375 -7.277344 5.539062 -6.785156 7.179688 -6.457031 C 10.75 -5.769531 11.339844 -5.539062 11.339844 -4.882812 C 11.339844 -3.964844 10.292969 -3.574219 7.703125 -3.574219 C 5.703125 -3.574219 2.71875 -3.800781 1.210938 -4.226562 Z M 1.210938 -0.523438 "/></g></g></g></svg>